<svg width="53" height="100" viewBox="0 0 53 100" fill="none" xmlns="http://www.w3.org/2000/svg">
<g clip-path="url(#clip0_327_1930)">
<g clip-path="url(#clip1_327_1930)">
<path d="M26.0259 32C26.0259 29.1711 27.1497 26.458 29.1501 24.4576C31.1505 22.4572 33.8636 21.3334 36.6925 21.3334C39.5215 21.3334 42.2346 22.4572 44.235 24.4576C46.2354 26.458 47.3592 29.1711 47.3592 32C47.3592 34.829 46.2354 37.5421 44.235 39.5425C42.2346 41.5429 39.5215 42.6667 36.6925 42.6667C33.8636 42.6667 31.1505 41.5429 29.1501 39.5425C27.1497 37.5421 26.0259 34.829 26.0259 32Z" fill="#1ABCFE"/>
<path d="M4.69238 53.3333C4.69238 50.5043 5.81619 47.7912 7.81658 45.7908C9.81697 43.7904 12.5301 42.6666 15.359 42.6666H26.0257V53.3333C26.0257 56.1623 24.9019 58.8754 22.9015 60.8758C20.9011 62.8762 18.188 64 15.359 64C12.5301 64 9.81697 62.8762 7.81658 60.8758C5.81619 58.8754 4.69238 56.1623 4.69238 53.3333Z" fill="#0ACF83"/>
<path d="M26.0259 0V21.3333H36.6925C39.5215 21.3333 42.2346 20.2095 44.235 18.2091C46.2354 16.2087 47.3592 13.4956 47.3592 10.6667C47.3592 7.83769 46.2354 5.12458 44.235 3.12419C42.2346 1.12381 39.5215 0 36.6925 0L26.0259 0Z" fill="#FF7262"/>
<path d="M4.69238 10.6667C4.69238 13.4956 5.81619 16.2087 7.81658 18.2091C9.81697 20.2095 12.5301 21.3333 15.359 21.3333H26.0257V0H15.359C12.5301 0 9.81697 1.12381 7.81658 3.12419C5.81619 5.12458 4.69238 7.83769 4.69238 10.6667Z" fill="#F24E1E"/>
<path d="M4.69238 32C4.69238 34.829 5.81619 37.5421 7.81658 39.5425C9.81697 41.5429 12.5301 42.6667 15.359 42.6667H26.0257V21.3334H15.359C12.5301 21.3334 9.81697 22.4572 7.81658 24.4576C5.81619 26.458 4.69238 29.1711 4.69238 32Z" fill="#A259FF"/>
</g>
<path d="M1.61111 93V79.9091H9.46054V81.3153H3.19633V85.7386H8.87247V87.1449H3.19633V93H1.61111ZM11.971 93V83.1818H13.4795V93H11.971ZM12.7381 81.5455C12.444 81.5455 12.1905 81.4453 11.9774 81.245C11.7686 81.0447 11.6642 80.804 11.6642 80.5227C11.6642 80.2415 11.7686 80.0007 11.9774 79.8004C12.1905 79.6001 12.444 79.5 12.7381 79.5C13.0321 79.5 13.2835 79.6001 13.4923 79.8004C13.7054 80.0007 13.8119 80.2415 13.8119 80.5227C13.8119 80.804 13.7054 81.0447 13.4923 81.245C13.2835 81.4453 13.0321 81.5455 12.7381 81.5455ZM20.2056 96.8864C19.4769 96.8864 18.8505 96.7926 18.3263 96.6051C17.8022 96.4219 17.3654 96.179 17.0159 95.8764C16.6708 95.5781 16.3959 95.2585 16.1914 94.9176L17.3931 94.0739C17.5294 94.2528 17.702 94.4574 17.9108 94.6875C18.1196 94.9219 18.4051 95.1243 18.7674 95.2947C19.1338 95.4695 19.6132 95.5568 20.2056 95.5568C20.9982 95.5568 21.6523 95.3651 22.1679 94.9815C22.6835 94.598 22.9414 93.9972 22.9414 93.179V91.1847H22.8135C22.7027 91.3636 22.5451 91.5852 22.3405 91.8494C22.1402 92.1094 21.8505 92.3416 21.4712 92.5462C21.0962 92.7464 20.5891 92.8466 19.9499 92.8466C19.1573 92.8466 18.4456 92.6591 17.8149 92.2841C17.1885 91.9091 16.6921 91.3636 16.3256 90.6477C15.9634 89.9318 15.7823 89.0625 15.7823 88.0398C15.7823 87.0341 15.9591 86.1584 16.3128 85.4126C16.6665 84.6626 17.1587 84.0831 17.7894 83.674C18.4201 83.2607 19.1487 83.054 19.9755 83.054C20.6147 83.054 21.1218 83.1605 21.4968 83.3736C21.876 83.5824 22.1658 83.821 22.3661 84.0895C22.5706 84.3537 22.7283 84.571 22.8391 84.7415H22.9925V83.1818H24.4499V93.2812C24.4499 94.125 24.2581 94.8111 23.8746 95.3395C23.4953 95.8722 22.984 96.2621 22.3405 96.5092C21.7013 96.7607 20.9897 96.8864 20.2056 96.8864ZM20.1544 91.4915C20.7595 91.4915 21.2709 91.353 21.6885 91.076C22.1061 90.799 22.4236 90.4006 22.6409 89.8807C22.8583 89.3608 22.9669 88.7386 22.9669 88.0142C22.9669 87.3068 22.8604 86.6825 22.6473 86.1413C22.4343 85.6001 22.1189 85.1761 21.7013 84.8693C21.2837 84.5625 20.7681 84.4091 20.1544 84.4091C19.5152 84.4091 18.9826 84.571 18.5564 84.8949C18.1345 85.2187 17.8171 85.6534 17.604 86.1989C17.3952 86.7443 17.2908 87.3494 17.2908 88.0142C17.2908 88.696 17.3973 89.299 17.6104 89.8232C17.8277 90.343 18.1473 90.7521 18.5692 91.0504C18.9953 91.3445 19.5237 91.4915 20.1544 91.4915ZM27.2112 93V83.1818H28.6686V84.7159H28.7965C29.001 84.1918 29.3313 83.7848 29.7872 83.495C30.2432 83.201 30.7908 83.054 31.43 83.054C32.0777 83.054 32.6168 83.201 33.0472 83.495C33.4818 83.7848 33.8206 84.1918 34.0635 84.7159H34.1658C34.4172 84.2088 34.7943 83.8061 35.2972 83.5078C35.8 83.2053 36.403 83.054 37.1061 83.054C37.984 83.054 38.702 83.3288 39.2603 83.8786C39.8185 84.424 40.0976 85.2741 40.0976 86.429V93H38.5891V86.429C38.5891 85.7045 38.3909 85.1868 37.9946 84.8757C37.5983 84.5646 37.1317 84.4091 36.5948 84.4091C35.9044 84.4091 35.3696 84.6179 34.9904 85.0355C34.6111 85.4489 34.4215 85.973 34.4215 86.608V93H32.8874V86.2756C32.8874 85.7173 32.7063 85.2678 32.3441 84.9268C31.9818 84.5817 31.5152 84.4091 30.9442 84.4091C30.5522 84.4091 30.1857 84.5135 29.8448 84.7223C29.5081 84.9311 29.2354 85.2209 29.0266 85.5916C28.822 85.9581 28.7198 86.3821 28.7198 86.8636V93H27.2112ZM45.745 93.2301C45.1228 93.2301 44.5582 93.1129 44.0511 92.8786C43.544 92.6399 43.1413 92.2969 42.843 91.8494C42.5447 91.3977 42.3956 90.8523 42.3956 90.2131C42.3956 89.6506 42.5063 89.1946 42.7279 88.8452C42.9495 88.4915 43.2457 88.2145 43.6164 88.0142C43.9872 87.8139 44.3963 87.6648 44.8437 87.5668C45.2954 87.4645 45.7492 87.3835 46.2052 87.3239C46.8018 87.2472 47.2855 87.1896 47.6562 87.1513C48.0312 87.1087 48.3039 87.0384 48.4744 86.9403C48.6491 86.8423 48.7365 86.6719 48.7365 86.429V86.3778C48.7365 85.7472 48.5639 85.2571 48.2187 84.9077C47.8778 84.5582 47.36 84.3835 46.6654 84.3835C45.9453 84.3835 45.3806 84.5412 44.9715 84.8565C44.5625 85.1719 44.2748 85.5085 44.1086 85.8665L42.6768 85.3551C42.9325 84.7585 43.2734 84.294 43.6995 83.9616C44.1299 83.625 44.5987 83.3906 45.1058 83.2585C45.6171 83.1222 46.12 83.054 46.6143 83.054C46.9296 83.054 47.2919 83.0923 47.701 83.169C48.1143 83.2415 48.5127 83.3928 48.8963 83.6229C49.284 83.853 49.6058 84.2003 49.8615 84.6648C50.1171 85.1293 50.245 85.7514 50.245 86.5312V93H48.7365V91.6705H48.6598C48.5575 91.8835 48.387 92.1115 48.1484 92.3544C47.9098 92.5973 47.5923 92.804 47.196 92.9744C46.7997 93.1449 46.316 93.2301 45.745 93.2301ZM45.9751 91.875C46.5717 91.875 47.0745 91.7578 47.4836 91.5234C47.897 91.2891 48.2081 90.9865 48.4169 90.6158C48.6299 90.245 48.7365 89.8551 48.7365 89.446V88.0653C48.6725 88.142 48.5319 88.2124 48.3146 88.2763C48.1015 88.3359 47.8544 88.3892 47.5731 88.4361C47.2961 88.4787 47.0255 88.517 46.7613 88.5511C46.5014 88.581 46.2904 88.6065 46.1285 88.6278C45.7365 88.679 45.37 88.7621 45.0291 88.8771C44.6924 88.9879 44.4197 89.1562 44.2109 89.3821C44.0063 89.6037 43.9041 89.9062 43.9041 90.2898C43.9041 90.8139 44.098 91.2102 44.4858 91.4787C44.8778 91.7429 45.3742 91.875 45.9751 91.875Z" fill="#D1D5DB"/>
</g>
<defs>
<clipPath id="clip0_327_1930">
<rect width="52" height="100" fill="white" transform="translate(0.0258789)"/>
</clipPath>
<clipPath id="clip1_327_1930">
<rect width="42.6667" height="64" fill="white" transform="translate(4.69238)"/>
</clipPath>
</defs>
</svg>
