<svg width="64" height="100" viewBox="0 0 64 100" fill="none" xmlns="http://www.w3.org/2000/svg">
<g clip-path="url(#clip0_327_1952)">
<path d="M56.2665 29.4666L34.5332 7.73329C33.8665 7.06663 32.9332 6.66663 31.9998 6.66663C31.0665 6.66663 30.1332 7.06663 29.4665 7.73329L24.7998 12.4L30.2665 17.8666C30.7998 17.6 31.3332 17.4666 31.9998 17.4666C34.2665 17.4666 35.9998 19.2 35.9998 21.4666C35.9998 22.1333 35.8665 22.6666 35.5998 23.2L40.9332 28.5333C41.4665 28.2666 41.9998 28.1333 42.6665 28.1333C44.9332 28.1333 46.6665 29.8666 46.6665 32.1333C46.6665 34.4 44.9332 36.1333 42.6665 36.1333C40.3998 36.1333 38.6665 34.4 38.6665 32.1333C38.6665 31.4666 38.7998 30.9333 39.0665 30.4L33.7332 25.0666C33.5998 25.0666 33.4665 25.2 33.3332 25.2V39.0666C34.9332 39.6 35.9998 41.0666 35.9998 42.8C35.9998 45.0666 34.2665 46.8 31.9998 46.8C29.7332 46.8 27.9998 45.0666 27.9998 42.8C27.9998 41.0666 29.0665 39.6 30.6665 39.0666V25.0666C29.0665 24.5333 27.9998 23.0666 27.9998 21.3333C27.9998 20.6666 28.1332 20.1333 28.3998 19.6L22.9332 14.1333L7.73317 29.4666C7.0665 30.1333 6.6665 31.0666 6.6665 32C6.6665 32.9333 7.0665 33.8666 7.73317 34.5333L29.4665 56.2666C30.1332 56.9333 31.0665 57.3333 31.9998 57.3333C32.9332 57.3333 33.8665 56.9333 34.5332 56.2666L56.2665 34.5333C56.9332 33.8666 57.3332 32.9333 57.3332 32C57.3332 31.0666 56.9332 30.1333 56.2665 29.4666Z" fill="#F4511E"/>
<path d="M30.0341 84C29.8935 83.5696 29.7081 83.1839 29.478 82.843C29.2521 82.4979 28.9815 82.2038 28.6662 81.9609C28.3551 81.718 28.0014 81.5327 27.6051 81.4048C27.2088 81.277 26.7741 81.2131 26.3011 81.2131C25.5256 81.2131 24.8203 81.4134 24.1854 81.8139C23.5504 82.2145 23.0455 82.8047 22.6705 83.5845C22.2955 84.3643 22.108 85.321 22.108 86.4545C22.108 87.5881 22.2976 88.5447 22.6768 89.3246C23.0561 90.1044 23.5696 90.6946 24.2173 91.0952C24.8651 91.4957 25.5938 91.696 26.4034 91.696C27.1534 91.696 27.8139 91.5362 28.3849 91.2166C28.9602 90.8928 29.4077 90.4368 29.7273 89.8487C30.0511 89.2564 30.2131 88.5597 30.2131 87.7585L30.6989 87.8608H26.7614V86.4545H31.7472V87.8608C31.7472 88.9389 31.517 89.8764 31.0568 90.6733C30.6009 91.4702 29.9702 92.0881 29.1648 92.527C28.3636 92.9616 27.4432 93.179 26.4034 93.179C25.2443 93.179 24.2259 92.9062 23.348 92.3608C22.4744 91.8153 21.7926 91.0398 21.3026 90.0341C20.8168 89.0284 20.5739 87.8352 20.5739 86.4545C20.5739 85.419 20.7124 84.4879 20.9893 83.6612C21.2706 82.8303 21.6669 82.1229 22.1783 81.5391C22.6896 80.9553 23.2947 80.5078 23.9936 80.1967C24.6925 79.8857 25.4616 79.7301 26.3011 79.7301C26.9915 79.7301 27.6349 79.8345 28.2315 80.0433C28.8324 80.2479 29.3672 80.5398 29.8359 80.919C30.3089 81.294 30.7031 81.7436 31.0185 82.2678C31.3338 82.7876 31.5511 83.3651 31.6705 84H30.0341ZM34.8729 93V83.1818H36.3814V93H34.8729ZM35.6399 81.5455C35.3459 81.5455 35.0923 81.4453 34.8793 81.245C34.6705 81.0447 34.5661 80.804 34.5661 80.5227C34.5661 80.2415 34.6705 80.0007 34.8793 79.8004C35.0923 79.6001 35.3459 79.5 35.6399 79.5C35.9339 79.5 36.1854 79.6001 36.3942 79.8004C36.6072 80.0007 36.7138 80.2415 36.7138 80.5227C36.7138 80.804 36.6072 81.0447 36.3942 81.245C36.1854 81.4453 35.9339 81.5455 35.6399 81.5455ZM43.4142 83.1818V84.4602H38.3262V83.1818H43.4142ZM39.8091 80.8295H41.3176V90.1875C41.3176 90.6136 41.3794 90.9332 41.503 91.1463C41.6309 91.3551 41.7928 91.4957 41.9888 91.5682C42.1891 91.6364 42.4 91.6705 42.6216 91.6705C42.7878 91.6705 42.9242 91.6619 43.0307 91.6449C43.1373 91.6236 43.2225 91.6065 43.2864 91.5938L43.5932 92.9489C43.4909 92.9872 43.3482 93.0256 43.165 93.0639C42.9817 93.1065 42.7495 93.1278 42.4682 93.1278C42.0421 93.1278 41.6245 93.0362 41.2154 92.853C40.8105 92.6697 40.4739 92.3906 40.2054 92.0156C39.9412 91.6406 39.8091 91.1676 39.8091 90.5966V80.8295Z" fill="#D1D5DB"/>
</g>
<defs>
<clipPath id="clip0_327_1952">
<rect width="64" height="100" fill="white"/>
</clipPath>
</defs>
</svg>
