<svg width="67" height="100" viewBox="0 0 67 100" fill="none" xmlns="http://www.w3.org/2000/svg">
<g clip-path="url(#clip0_327_1902)">
<path fill-rule="evenodd" clip-rule="evenodd" d="M38.3488 1.06177C37.897 1.06177 37.4775 1.15886 37.0903 1.2883C37.9131 1.83845 38.3649 2.5666 38.5908 3.39183C38.607 3.50509 38.6392 3.586 38.6554 3.69926C38.6716 3.79635 38.6876 3.89344 38.6876 3.99053C38.7522 5.41445 38.3165 5.59244 38.01 6.43385C37.542 7.51798 37.6711 8.68301 38.2358 9.6215C38.2842 9.73477 38.3488 9.86421 38.4295 9.97748C37.8163 5.8837 41.2208 5.26882 41.8501 3.99053C41.8985 2.87404 40.9788 2.12971 40.2527 1.61192C39.5589 1.19122 38.9296 1.06177 38.3488 1.06177ZM43.4797 1.98408C43.4152 2.35624 43.4636 2.25916 43.4475 2.45333C43.4313 2.58278 43.4313 2.74459 43.4152 2.87404C43.383 3.00348 43.3507 3.13293 43.3023 3.26238C43.27 3.39183 43.2216 3.52128 43.1732 3.65072C43.1086 3.78018 43.0603 3.89344 42.9957 4.02288C42.9473 4.08764 42.9151 4.15233 42.8666 4.21706C42.8344 4.2656 42.8021 4.31414 42.7698 4.36269C42.6892 4.47596 42.6085 4.58922 42.5278 4.6863C42.431 4.78339 42.3503 4.89666 42.2374 4.97757V4.99377C42.1406 5.07467 42.0438 5.17176 41.9308 5.25266C41.592 5.51155 41.2047 5.70573 40.8498 5.94844C40.7368 6.02935 40.6239 6.09407 40.5271 6.19116C40.4141 6.27206 40.3173 6.35296 40.2205 6.45005C40.1076 6.54714 40.0269 6.64423 39.9301 6.75749C39.8494 6.85458 39.7526 6.96784 39.688 7.08111C39.6074 7.19438 39.5267 7.30765 39.4622 7.42091C39.3976 7.55035 39.3492 7.66363 39.2847 7.79307C39.2363 7.92252 39.1879 8.03579 39.1556 8.16523C39.1072 8.31086 39.0749 8.44031 39.0426 8.56976C39.0265 8.63451 39.0265 8.71539 39.0104 8.78011C38.9942 8.84486 38.9942 8.90956 38.9782 8.97429C38.9782 9.10373 38.962 9.24936 38.962 9.37881C38.962 9.47589 38.962 9.57298 38.9782 9.67007C38.9782 9.79951 38.9943 9.92896 39.0266 10.0746C39.0427 10.204 39.075 10.3335 39.1072 10.4629C39.1556 10.5924 39.1879 10.7218 39.2363 10.8513C39.2686 10.9322 39.317 11.0131 39.3493 11.0778L35.6382 9.6377C35.0089 9.45971 34.3958 9.29791 33.7665 9.15228C33.4277 9.07137 33.0889 8.99046 32.75 8.90956C31.7819 8.71539 30.7977 8.56976 29.8135 8.47268C29.7812 8.47268 29.7651 8.45647 29.7328 8.45647C28.7647 8.35939 27.8127 8.31085 26.8446 8.31085C26.1347 8.31085 25.4247 8.34318 24.7309 8.39175C23.7467 8.4565 22.7624 8.58592 21.7782 8.74773C21.5362 8.78007 21.2942 8.82864 21.0521 8.87718C20.5519 8.97426 20.0679 9.08753 19.6 9.2008C19.358 9.26555 19.1159 9.33025 18.8739 9.39497C18.6319 9.49205 18.406 9.60532 18.1801 9.70241C18.0026 9.78331 17.8251 9.86422 17.6476 9.94513C17.6154 9.96133 17.5831 9.96133 17.567 9.97746C17.4056 10.0584 17.2604 10.1231 17.1152 10.204C17.0668 10.2202 17.0345 10.2363 17.0022 10.2525C16.8248 10.3334 16.6473 10.4305 16.5021 10.5114C16.3891 10.56 16.2762 10.6247 16.1794 10.6732C16.1309 10.7056 16.0664 10.738 16.0341 10.7541C15.8889 10.8351 15.7437 10.916 15.6146 10.9969C15.4694 11.0778 15.3403 11.1587 15.2274 11.2396C15.1144 11.3205 15.0015 11.3852 14.9047 11.4661C14.8885 11.4823 14.8724 11.4823 14.8563 11.4984C14.7595 11.5632 14.6465 11.6441 14.5497 11.725C14.5497 11.725 14.5336 11.7412 14.5175 11.7573C14.4368 11.8221 14.3561 11.8868 14.2754 11.9515C14.2432 11.9677 14.2109 12 14.1786 12.0162C14.098 12.081 14.0173 12.1619 13.9366 12.2266C13.9204 12.2589 13.8882 12.2751 13.872 12.2913C13.7752 12.3884 13.6784 12.4693 13.5816 12.5664C13.5654 12.5664 13.5654 12.5826 13.5494 12.5988C13.4526 12.6797 13.3557 12.7767 13.2589 12.8738C13.2428 12.89 13.2428 12.9062 13.2267 12.9062C13.146 12.9871 13.0653 13.068 12.9847 13.1651C12.9524 13.1974 12.904 13.2298 12.8717 13.2621C12.791 13.3592 12.6942 13.4563 12.5974 13.5534C12.5813 13.5857 12.549 13.6019 12.5329 13.6343C12.4038 13.7638 12.2908 13.8932 12.1618 14.0227C12.1456 14.0389 12.1295 14.055 12.1133 14.0712C11.8552 14.3463 11.5809 14.6213 11.2905 14.8641C11 15.123 10.6935 15.3657 10.3869 15.576C10.0642 15.8026 9.75763 15.9967 9.4188 16.1909C9.09609 16.3689 8.75726 16.5307 8.40229 16.6763C8.06345 16.822 7.70848 16.9514 7.35351 17.0647C6.67584 17.2103 5.98203 17.4854 5.38504 17.5339C5.25596 17.5339 5.11074 17.5663 4.98166 17.5825C4.83645 17.6148 4.70737 17.6472 4.57829 17.6796C4.44921 17.7281 4.32012 17.7766 4.19104 17.8252C4.06197 17.8737 3.93289 17.9384 3.80381 18.0032C3.69086 18.0841 3.56178 18.1488 3.44883 18.2297C3.33589 18.3106 3.22294 18.4077 3.12613 18.5048C3.01319 18.5857 2.90024 18.699 2.80343 18.796C2.70662 18.9093 2.60981 19.0064 2.52914 19.1197C2.44846 19.2491 2.35165 19.3624 2.28711 19.4918C2.20644 19.6051 2.12576 19.7345 2.06122 19.864C1.99665 20.0096 1.93214 20.1391 1.88373 20.2847C1.83533 20.4141 1.78692 20.5598 1.73852 20.7054C1.70627 20.8348 1.67395 20.9643 1.65785 21.0937C1.65785 21.11 1.64169 21.1261 1.64169 21.1423C1.60944 21.2879 1.60944 21.4821 1.59328 21.5792C1.57712 21.6924 1.56104 21.7895 1.56104 21.9028C1.56104 21.9675 1.56104 22.0484 1.5772 22.1131C1.59335 22.2264 1.60944 22.3235 1.64176 22.4206C1.67401 22.5177 1.70633 22.6147 1.7547 22.7118V22.728C1.80311 22.8251 1.86765 22.9222 1.93219 23.0193C1.99675 23.1164 2.06127 23.2135 2.14195 23.3106C2.22262 23.3915 2.31943 23.4885 2.41624 23.5695C2.51305 23.6665 2.60986 23.7474 2.7228 23.8283C3.11005 24.1681 3.20686 24.2814 3.70704 24.5403C3.78772 24.5889 3.8684 24.6212 3.96521 24.6698C3.98137 24.6698 3.99745 24.686 4.01361 24.686C4.01361 24.7183 4.01361 24.7345 4.02978 24.7669C4.04594 24.8963 4.07818 25.0258 4.11045 25.1552C4.14269 25.3008 4.19113 25.4303 4.23954 25.5436C4.28794 25.6406 4.32021 25.7377 4.36861 25.8348C4.38477 25.8672 4.40086 25.8996 4.41702 25.9157C4.48159 26.0452 4.5461 26.1584 4.61063 26.2717C4.69131 26.385 4.77199 26.4982 4.85266 26.6115C4.93333 26.7086 5.03015 26.8219 5.12696 26.9189C5.22377 27.016 5.32058 27.0969 5.43353 27.194C5.43353 27.194 5.44969 27.2102 5.46577 27.2102C5.56258 27.2911 5.65939 27.3721 5.7562 27.4368C5.86915 27.5177 5.98209 27.5824 6.11117 27.6471C6.22412 27.7119 6.3532 27.7766 6.48228 27.8251C6.57909 27.8737 6.69203 27.906 6.80498 27.9384C6.82114 27.9546 6.83722 27.9546 6.86954 27.9707C6.93411 27.987 7.01475 28.0031 7.0793 28.0193C7.03089 28.893 7.01473 29.7183 7.14386 30.0095C7.28907 30.3331 7.99902 29.3461 8.70896 28.2134C8.61215 29.3299 8.54761 30.6406 8.70896 31.0289C8.88644 31.4334 9.85455 30.1713 10.6936 28.7798C22.1333 26.1261 32.5727 34.0548 33.6699 45.252C33.4601 43.5044 31.3141 42.5336 30.3299 42.7763C29.8459 43.9737 29.023 45.5109 27.6999 46.4656C27.8128 45.3976 27.7645 44.2973 27.5386 43.2294C27.1836 44.718 26.4898 46.1096 25.5378 47.307C24.005 47.4202 22.4721 46.6759 21.6654 45.5594C21.6008 45.5109 21.5847 45.4138 21.5363 45.3491C21.4879 45.2358 21.4395 45.1226 21.4072 45.0093C21.3588 44.896 21.3266 44.7827 21.3104 44.6695C21.2943 44.5562 21.2943 44.4429 21.2943 44.3135C21.2943 44.2326 21.2943 44.1517 21.2943 44.0708C21.3104 43.9575 21.3427 43.8442 21.3749 43.731C21.4072 43.6177 21.4395 43.5044 21.4879 43.3912C21.5524 43.2779 21.6008 43.1646 21.6815 43.0514C21.9558 42.2747 21.9558 41.6436 21.4556 41.2715C21.3588 41.2067 21.262 41.1582 21.149 41.1097C21.0845 41.0935 21.0038 41.0611 20.9393 41.0449C20.8909 41.0287 20.8586 41.0126 20.8102 40.9964C20.6973 40.964 20.5843 40.9316 20.4714 40.9155C20.3584 40.8831 20.2455 40.8669 20.1325 40.8669C20.0196 40.8507 19.8905 40.8346 19.7776 40.8346C19.6969 40.8346 19.6162 40.8508 19.5355 40.8508C19.4065 40.8508 19.2935 40.867 19.1806 40.8993C19.0676 40.9156 18.9547 40.9317 18.8417 40.9641C18.7288 40.9964 18.6158 41.0288 18.5029 41.0774C18.3899 41.1259 18.2931 41.1744 18.1802 41.223C18.0834 41.2715 17.9866 41.3362 17.8736 41.3848C14.1142 43.8443 16.3569 49.6047 18.9224 51.2714C17.9543 51.4493 16.9701 51.6597 16.6958 51.8701C16.6796 51.8863 16.6635 51.9024 16.6635 51.9024C17.3573 52.3231 18.0834 52.6791 18.8418 52.9865C19.8744 53.3263 20.9716 53.6338 21.4556 53.7632V53.7794C22.7948 54.0545 24.1502 54.1516 25.5217 54.0707C32.6695 53.5691 38.5265 48.1161 39.5914 40.9317C39.6237 41.0773 39.656 41.2068 39.6882 41.3524C39.7366 41.6437 39.8012 41.9511 39.8334 42.2586V42.2748C39.8657 42.4204 39.8818 42.566 39.898 42.6955V42.7602C39.9142 42.9059 39.9302 43.0515 39.9302 43.1809C39.9464 43.3589 39.9625 43.5369 39.9625 43.7149V43.9738C39.9625 44.0547 39.9786 44.1518 39.9786 44.2327C39.9786 44.3298 39.9625 44.4269 39.9625 44.524V44.7505C39.9625 44.8638 39.9463 44.9608 39.9463 45.0741C39.9463 45.1389 39.9463 45.2036 39.9302 45.2845C39.9302 45.3977 39.914 45.511 39.914 45.6404C39.8978 45.689 39.8978 45.7375 39.8978 45.7861C39.8817 45.9155 39.8656 46.0288 39.8494 46.1582C39.8494 46.2068 39.8494 46.2553 39.8333 46.3039C39.8171 46.4657 39.7849 46.6113 39.7687 46.7731V46.7893V46.8055C39.7365 46.9512 39.7041 47.113 39.6719 47.2586V47.3072C39.6396 47.4528 39.6073 47.5984 39.5751 47.744C39.5751 47.7603 39.5589 47.7926 39.5589 47.8088C39.5267 47.9544 39.4944 48.1 39.446 48.2457V48.2942C39.3976 48.456 39.3492 48.6016 39.3169 48.7473C39.3007 48.7635 39.3007 48.7796 39.3007 48.7796C39.2523 48.9414 39.2039 49.1032 39.1555 49.265C39.091 49.4269 39.0426 49.5725 38.9781 49.7343C38.9135 49.8961 38.8651 50.0579 38.8006 50.2035C38.736 50.3654 38.6715 50.511 38.6069 50.6728H38.5908C38.5262 50.8184 38.4617 50.9802 38.381 51.1259C38.3648 51.1744 38.3488 51.2068 38.3326 51.2391C38.3164 51.2553 38.3164 51.2715 38.3003 51.2877C37.2516 53.4074 35.7026 55.2682 33.7664 56.7245C33.6373 56.8054 33.5082 56.9025 33.3792 56.9995C33.3469 57.0319 33.2985 57.0481 33.2662 57.0804C33.1533 57.1614 33.0403 57.2423 32.9113 57.3232L32.9597 57.4203H32.9758C33.2017 57.3879 33.4276 57.3555 33.6535 57.3232H33.6696C34.0892 57.2584 34.5087 57.1775 34.9282 57.0966C35.0411 57.0804 35.1702 57.0481 35.2831 57.0157C35.3638 56.9995 35.4284 56.9834 35.509 56.9672C35.622 56.951 35.7349 56.9186 35.8479 56.9024C35.9447 56.8701 36.0415 56.8539 36.1383 56.8215C37.7518 56.4332 39.3169 55.8992 40.8175 55.2682C38.252 58.7794 34.8152 61.6111 30.7976 63.4719C32.6531 63.3425 34.5087 63.035 36.2996 62.5172C42.8021 60.5917 48.2718 56.2066 51.5473 50.3006C50.8857 54.0384 49.4013 57.5982 47.2069 60.705C48.772 59.6694 50.208 58.472 51.515 57.1128C55.1292 53.3264 57.5011 48.5207 58.3078 43.359C58.8564 45.9156 59.0178 48.5531 58.7757 51.1582C70.4252 34.8639 59.7439 17.971 55.2744 13.5213C55.2583 13.4889 55.2422 13.4727 55.2422 13.4404C55.226 13.4566 55.226 13.4566 55.226 13.4727C55.226 13.4565 55.226 13.4565 55.2099 13.4404C55.2099 13.6345 55.1937 13.8287 55.1776 14.0229C55.1292 14.395 55.0808 14.751 55.0163 15.107C54.9356 15.463 54.8388 15.8189 54.742 16.1749C54.629 16.5147 54.5 16.8707 54.3547 17.2105C54.2095 17.5341 54.0482 17.8739 53.8707 18.1976C53.6932 18.505 53.4996 18.8286 53.2898 19.1199C53.0801 19.4273 52.8542 19.7186 52.6283 19.9936C52.3863 20.2849 52.1281 20.5438 51.8699 20.8027C51.7086 20.9483 51.5634 21.0778 51.402 21.2072C51.2729 21.3205 51.16 21.4176 51.0309 21.5308C50.7405 21.7574 50.4501 21.9677 50.1274 22.1619C49.8208 22.3561 49.4981 22.5502 49.1754 22.712C48.8366 22.8739 48.4977 23.0195 48.1589 23.1651C47.82 23.2946 47.4651 23.4078 47.1101 23.5049C46.7551 23.602 46.384 23.6829 46.0291 23.7476C45.658 23.8124 45.2868 23.8447 44.9319 23.8771C44.6737 23.8933 44.4156 23.9094 44.1574 23.9094C43.7863 23.9094 43.4152 23.8771 43.0602 23.8447C42.6891 23.8123 42.318 23.7638 41.963 23.6828C41.5919 23.6181 41.237 23.521 40.882 23.4078H40.8658C41.2208 23.3754 41.5758 23.343 41.9307 23.2783C42.3018 23.2136 42.6568 23.1327 43.0118 23.0356C43.3668 22.9385 43.7217 22.8253 44.0606 22.6958C44.4155 22.5664 44.7544 22.4046 45.0771 22.2427C45.4159 22.0809 45.7225 21.9029 46.0452 21.7088C46.3517 21.4984 46.6583 21.2881 46.9487 21.0615C47.2392 20.835 47.5135 20.5923 47.7716 20.3334C48.0459 20.0907 48.2879 19.8156 48.53 19.5405C48.772 19.2493 48.9979 18.958 49.2076 18.6667C49.2399 18.6182 49.2722 18.5535 49.3045 18.5049C49.4658 18.246 49.6271 17.9871 49.7724 17.7282C49.9498 17.4046 50.1112 17.081 50.2564 16.7412C50.4016 16.4014 50.5307 16.0616 50.6437 15.7056C50.7566 15.3658 50.8373 15.0098 50.918 14.6539C50.9825 14.2817 51.047 13.9257 51.0793 13.5697C51.1115 13.1976 51.1439 12.8254 51.1439 12.4694C51.1439 12.2105 51.1277 11.9516 51.1116 11.6928C51.0794 11.3206 51.0309 10.9646 50.9825 10.6086C50.918 10.2365 50.8373 9.88049 50.7405 9.5245C50.6276 9.18471 50.5146 8.82872 50.3856 8.48893C50.2565 8.14912 50.0951 7.80932 49.9338 7.4857C49.7563 7.16208 49.5788 6.83846 49.3852 6.53103C49.1754 6.22359 48.9657 5.93233 48.7398 5.64107C48.4978 5.36599 48.2557 5.09092 47.9976 4.81584C47.8685 4.6864 47.7233 4.54077 47.578 4.41132C46.852 3.84498 46.0936 3.31101 45.3353 2.82558C45.2223 2.76084 45.1255 2.71232 45.0126 2.66377C44.4801 2.32397 43.9799 2.14589 43.4797 1.98408Z" fill="#E0234E"/>
<path d="M15.5597 79.9091V93H14.0256L6.89205 82.7216H6.7642V93H5.17898V79.9091H6.71307L13.8722 90.2131H14V79.9091H15.5597ZM22.6436 93.2045C21.6976 93.2045 20.8816 92.9957 20.1955 92.5781C19.5137 92.1562 18.9874 91.5682 18.6167 90.8139C18.2502 90.0554 18.0669 89.1733 18.0669 88.1676C18.0669 87.1619 18.2502 86.2756 18.6167 85.5085C18.9874 84.7372 19.503 84.1364 20.1635 83.706C20.8283 83.2713 21.6039 83.054 22.4902 83.054C23.0016 83.054 23.5066 83.1392 24.0051 83.3097C24.5037 83.4801 24.9576 83.7571 25.3667 84.1406C25.7757 84.5199 26.1017 85.0227 26.3446 85.6491C26.5875 86.2756 26.709 87.0469 26.709 87.9631V88.6023H19.1408V87.2983H25.1749C25.1749 86.7443 25.0641 86.25 24.8425 85.8153C24.6252 85.3807 24.3141 85.0376 23.9093 84.7862C23.5087 84.5348 23.0357 84.4091 22.4902 84.4091C21.8894 84.4091 21.3695 84.5582 20.9306 84.8565C20.4959 85.1506 20.1614 85.5341 19.927 86.0071C19.6926 86.4801 19.5755 86.9872 19.5755 87.5284V88.3977C19.5755 89.1392 19.7033 89.7678 19.959 90.2834C20.2189 90.7947 20.579 91.1847 21.0392 91.4531C21.4995 91.7173 22.0343 91.8494 22.6436 91.8494C23.04 91.8494 23.3979 91.794 23.7175 91.6832C24.0414 91.5682 24.3205 91.3977 24.5549 91.1719C24.7892 90.9418 24.9703 90.6562 25.0982 90.3153L26.5556 90.7244C26.4022 91.2188 26.1444 91.6534 25.7821 92.0284C25.4199 92.3991 24.9725 92.6889 24.4398 92.8977C23.9071 93.1023 23.3084 93.2045 22.6436 93.2045ZM35.9583 85.3807L34.6032 85.7642C34.5179 85.5384 34.3922 85.3189 34.226 85.1058C34.0641 84.8885 33.8425 84.7095 33.5613 84.5689C33.28 84.4283 32.9199 84.358 32.481 84.358C31.8801 84.358 31.3794 84.4964 30.9789 84.7734C30.5826 85.0462 30.3844 85.3935 30.3844 85.8153C30.3844 86.1903 30.5208 86.4865 30.7935 86.7038C31.0662 86.9212 31.4924 87.1023 32.0719 87.2472L33.5293 87.6051C34.4071 87.8182 35.0613 88.1442 35.4917 88.5831C35.9221 89.0178 36.1373 89.5781 36.1373 90.2642C36.1373 90.8267 35.9753 91.3295 35.6515 91.7727C35.3319 92.2159 34.8844 92.5653 34.3091 92.821C33.7338 93.0767 33.0648 93.2045 32.302 93.2045C31.3006 93.2045 30.4718 92.9872 29.8155 92.5526C29.1593 92.1179 28.7438 91.483 28.5691 90.6477L30.0009 90.2898C30.1373 90.8182 30.3951 91.2145 30.7743 91.4787C31.1578 91.7429 31.6586 91.875 32.2765 91.875C32.9796 91.875 33.5378 91.7259 33.9512 91.4276C34.3688 91.125 34.5776 90.7628 34.5776 90.3409C34.5776 90 34.4583 89.7145 34.2196 89.4844C33.981 89.25 33.6145 89.0753 33.1202 88.9602L31.4838 88.5767C30.5847 88.3636 29.9242 88.0334 29.5023 87.5859C29.0847 87.1342 28.8759 86.5696 28.8759 85.892C28.8759 85.3381 29.0314 84.848 29.3425 84.4219C29.6578 83.9957 30.0861 83.6612 30.6273 83.4183C31.1728 83.1754 31.7907 83.054 32.481 83.054C33.4526 83.054 34.2154 83.267 34.7694 83.6932C35.3276 84.1193 35.7239 84.6818 35.9583 85.3807ZM42.6779 83.1818V84.4602H37.5898V83.1818H42.6779ZM39.0728 80.8295H40.5813V90.1875C40.5813 90.6136 40.6431 90.9332 40.7667 91.1463C40.8945 91.3551 41.0565 91.4957 41.2525 91.5682C41.4528 91.6364 41.6637 91.6705 41.8853 91.6705C42.0515 91.6705 42.1879 91.6619 42.2944 91.6449C42.4009 91.6236 42.4862 91.6065 42.5501 91.5938L42.8569 92.9489C42.7546 92.9872 42.6119 93.0256 42.4286 93.0639C42.2454 93.1065 42.0131 93.1278 41.7319 93.1278C41.3058 93.1278 40.8881 93.0362 40.479 92.853C40.0742 92.6697 39.7376 92.3906 39.4691 92.0156C39.2049 91.6406 39.0728 91.1676 39.0728 90.5966V80.8295ZM46.0465 93.1023C45.7312 93.1023 45.4606 92.9893 45.2347 92.7635C45.0089 92.5376 44.896 92.267 44.896 91.9517C44.896 91.6364 45.0089 91.3658 45.2347 91.1399C45.4606 90.9141 45.7312 90.8011 46.0465 90.8011C46.3619 90.8011 46.6325 90.9141 46.8583 91.1399C47.0842 91.3658 47.1971 91.6364 47.1971 91.9517C47.1971 92.1605 47.1438 92.3523 47.0373 92.527C46.935 92.7017 46.7965 92.8423 46.6218 92.9489C46.4513 93.0511 46.2596 93.1023 46.0465 93.1023ZM49.9041 83.1818H51.4126V93.7159C51.4126 94.321 51.3082 94.8452 51.0994 95.2884C50.8949 95.7315 50.5838 96.0746 50.1662 96.3175C49.7528 96.5604 49.2308 96.6818 48.6001 96.6818C48.549 96.6818 48.4979 96.6818 48.4467 96.6818C48.3956 96.6818 48.3445 96.6818 48.2933 96.6818V95.2756C48.3445 95.2756 48.3913 95.2756 48.4339 95.2756C48.4766 95.2756 48.5234 95.2756 48.5746 95.2756C49.0348 95.2756 49.3714 95.1392 49.5845 94.8665C49.7976 94.598 49.9041 94.2145 49.9041 93.7159V83.1818ZM50.6456 81.5455C50.3516 81.5455 50.098 81.4453 49.8849 81.245C49.6761 81.0447 49.5717 80.804 49.5717 80.5227C49.5717 80.2415 49.6761 80.0007 49.8849 79.8004C50.098 79.6001 50.3516 79.5 50.6456 79.5C50.9396 79.5 51.1911 79.6001 51.3999 79.8004C51.6129 80.0007 51.7195 80.2415 51.7195 80.5227C51.7195 80.804 51.6129 81.0447 51.3999 81.245C51.1911 81.4453 50.9396 81.5455 50.6456 81.5455ZM61.1301 85.3807L59.775 85.7642C59.6898 85.5384 59.5641 85.3189 59.3979 85.1058C59.236 84.8885 59.0144 84.7095 58.7331 84.5689C58.4519 84.4283 58.0918 84.358 57.6529 84.358C57.052 84.358 56.5513 84.4964 56.1507 84.7734C55.7544 85.0462 55.5563 85.3935 55.5563 85.8153C55.5563 86.1903 55.6926 86.4865 55.9654 86.7038C56.2381 86.9212 56.6642 87.1023 57.2438 87.2472L58.7012 87.6051C59.579 87.8182 60.2331 88.1442 60.6635 88.5831C61.0939 89.0178 61.3091 89.5781 61.3091 90.2642C61.3091 90.8267 61.1472 91.3295 60.8233 91.7727C60.5037 92.2159 60.0563 92.5653 59.481 92.821C58.9057 93.0767 58.2367 93.2045 57.4739 93.2045C56.4725 93.2045 55.6436 92.9872 54.9874 92.5526C54.3311 92.1179 53.9157 91.483 53.7409 90.6477L55.1728 90.2898C55.3091 90.8182 55.5669 91.2145 55.9462 91.4787C56.3297 91.7429 56.8304 91.875 57.4483 91.875C58.1515 91.875 58.7097 91.7259 59.123 91.4276C59.5407 91.125 59.7495 90.7628 59.7495 90.3409C59.7495 90 59.6301 89.7145 59.3915 89.4844C59.1529 89.25 58.7864 89.0753 58.2921 88.9602L56.6557 88.5767C55.7566 88.3636 55.0961 88.0334 54.6742 87.5859C54.2566 87.1342 54.0478 86.5696 54.0478 85.892C54.0478 85.3381 54.2033 84.848 54.5144 84.4219C54.8297 83.9957 55.258 83.6612 55.7992 83.4183C56.3446 83.1754 56.9625 83.054 57.6529 83.054C58.6245 83.054 59.3873 83.267 59.9412 83.6932C60.4995 84.1193 60.8958 84.6818 61.1301 85.3807Z" fill="#D1D5DB"/>
</g>
<defs>
<clipPath id="clip0_327_1902">
<rect width="66.0645" height="100" fill="white" transform="translate(0.0615234)"/>
</clipPath>
</defs>
</svg>
