<svg width="66" height="100" viewBox="0 0 66 100" fill="none" xmlns="http://www.w3.org/2000/svg">
<g clip-path="url(#clip0_327_1893)">
<g clip-path="url(#clip1_327_1893)">
<path d="M32.9132 64C32.0552 64 31.2545 63.7668 30.5109 63.3586L22.9036 58.7517C21.7596 58.1102 22.3316 57.877 22.6748 57.7603C24.2191 57.2355 24.5051 57.1189 26.1067 56.1859C26.2782 56.0692 26.507 56.1275 26.6786 56.2442L32.5128 59.8014C32.7416 59.918 33.0276 59.918 33.1992 59.8014L56.0211 46.3307C56.2499 46.214 56.3643 45.9808 56.3643 45.6892V18.806C56.3643 18.5145 56.2499 18.2812 56.0211 18.1646L33.1992 4.75223C32.9704 4.63561 32.6844 4.63561 32.5128 4.75223L9.69085 18.1646C9.46207 18.2812 9.34766 18.5728 9.34766 18.806V45.6892C9.34766 45.9224 9.46207 46.214 9.69085 46.3307L15.9254 50.0045C19.3001 51.7539 21.4164 49.7129 21.4164 47.6719V21.1386C21.4164 20.7888 21.7024 20.4389 22.1028 20.4389H25.0199C25.3631 20.4389 25.7062 20.7305 25.7062 21.1386V47.6719C25.7062 52.2788 23.2467 54.9613 18.9569 54.9613C17.6414 54.9613 16.6118 54.9613 13.6947 53.5034L7.68893 50.0045C6.20179 49.1297 5.28662 47.4969 5.28662 45.7475V18.8644C5.28662 17.115 6.20179 15.4822 7.68893 14.6074L30.5109 1.13672C31.9409 0.320313 33.8856 0.320313 35.3155 1.13672L58.1374 14.6074C59.6246 15.4822 60.5398 17.115 60.5398 18.8644V45.7475C60.5398 47.4969 59.6246 49.1297 58.1374 50.0045L35.3155 63.4752C34.6291 63.7668 33.7712 64 32.9132 64Z" fill="#5FA04E"/>
<path d="M40.0058 45.5142C29.9961 45.5142 27.937 40.849 27.937 36.8836C27.937 36.5337 28.223 36.1839 28.6233 36.1839H31.5977C31.9408 36.1839 32.2269 36.4171 32.2269 36.767C32.6844 39.8576 34 41.3738 40.0629 41.3738C44.8675 41.3738 46.9267 40.2658 46.9267 37.6417C46.9267 36.1255 46.3547 35.0175 38.8617 34.2594C32.6272 33.6179 28.7378 32.2184 28.7378 27.145C28.7378 22.4215 32.6272 19.6224 39.1478 19.6224C46.4691 19.6224 50.0725 22.1883 50.5301 27.7865C50.5301 27.9615 50.4729 28.1364 50.3586 28.3114C50.2442 28.4279 50.0725 28.5446 49.9009 28.5446H46.8695C46.5835 28.5446 46.2975 28.3114 46.2403 28.0197C45.5539 24.8124 43.7808 23.7627 39.0906 23.7627C33.8283 23.7627 33.1992 25.6289 33.1992 27.0284C33.1992 28.7195 33.9428 29.2444 41.0353 30.1774C48.0706 31.1104 51.3881 32.4517 51.3881 37.4668C51.3881 42.5984 47.2127 45.5142 40.0058 45.5142Z" fill="#5FA04E"/>
</g>
<path d="M12.2799 79.9091V93H10.7458L3.61226 82.7216H3.48442V93H1.89919V79.9091H3.43328L10.5924 90.2131H10.7202V79.9091H12.2799ZM19.236 93.2045C18.3497 93.2045 17.572 92.9936 16.9029 92.5717C16.2381 92.1499 15.7183 91.5597 15.3433 90.8011C14.9725 90.0426 14.7872 89.1562 14.7872 88.142C14.7872 87.1193 14.9725 86.2266 15.3433 85.4638C15.7183 84.701 16.2381 84.1087 16.9029 83.6868C17.572 83.2649 18.3497 83.054 19.236 83.054C20.1224 83.054 20.8979 83.2649 21.5627 83.6868C22.2318 84.1087 22.7516 84.701 23.1224 85.4638C23.4974 86.2266 23.6849 87.1193 23.6849 88.142C23.6849 89.1562 23.4974 90.0426 23.1224 90.8011C22.7516 91.5597 22.2318 92.1499 21.5627 92.5717C20.8979 92.9936 20.1224 93.2045 19.236 93.2045ZM19.236 91.8494C19.9093 91.8494 20.4633 91.6768 20.8979 91.3317C21.3326 90.9865 21.6543 90.5327 21.8631 89.9702C22.072 89.4077 22.1764 88.7983 22.1764 88.142C22.1764 87.4858 22.072 86.8743 21.8631 86.3075C21.6543 85.7408 21.3326 85.2827 20.8979 84.9332C20.4633 84.5838 19.9093 84.4091 19.236 84.4091C18.5627 84.4091 18.0087 84.5838 17.5741 84.9332C17.1394 85.2827 16.8177 85.7408 16.6089 86.3075C16.4001 86.8743 16.2957 87.4858 16.2957 88.142C16.2957 88.7983 16.4001 89.4077 16.6089 89.9702C16.8177 90.5327 17.1394 90.9865 17.5741 91.3317C18.0087 91.6768 18.5627 91.8494 19.236 91.8494ZM29.695 93.2045C28.8768 93.2045 28.1545 92.9979 27.5281 92.5845C26.9017 92.1669 26.4116 91.5788 26.0579 90.8203C25.7042 90.0575 25.5274 89.1562 25.5274 88.1165C25.5274 87.0852 25.7042 86.1903 26.0579 85.4318C26.4116 84.6733 26.9038 84.0874 27.5345 83.674C28.1652 83.2607 28.8939 83.054 29.7206 83.054C30.3598 83.054 30.8647 83.1605 31.2355 83.3736C31.6105 83.5824 31.896 83.821 32.092 84.0895C32.2923 84.3537 32.4478 84.571 32.5586 84.7415H32.6865V79.9091H34.195V93H32.7376V91.4915H32.5586C32.4478 91.6705 32.2902 91.8963 32.0856 92.169C31.8811 92.4375 31.5892 92.6783 31.2099 92.8913C30.8307 93.1001 30.3257 93.2045 29.695 93.2045ZM29.8995 91.8494C30.5047 91.8494 31.016 91.6918 31.4336 91.3764C31.8513 91.0568 32.1687 90.6158 32.3861 90.0533C32.6034 89.4865 32.712 88.8324 32.712 88.0909C32.712 87.358 32.6055 86.7166 32.3924 86.1669C32.1794 85.6129 31.864 85.1825 31.4464 84.8757C31.0288 84.5646 30.5132 84.4091 29.8995 84.4091C29.2603 84.4091 28.7277 84.5732 28.3015 84.9013C27.8797 85.2251 27.5622 85.6662 27.3491 86.2244C27.1403 86.7784 27.0359 87.4006 27.0359 88.0909C27.0359 88.7898 27.1424 89.4247 27.3555 89.9957C27.5728 90.5625 27.8924 91.0142 28.3143 91.3509C28.7405 91.6832 29.2689 91.8494 29.8995 91.8494ZM41.2838 93.2045C40.3378 93.2045 39.5217 92.9957 38.8356 92.5781C38.1538 92.1562 37.6275 91.5682 37.2568 90.8139C36.8903 90.0554 36.7071 89.1733 36.7071 88.1676C36.7071 87.1619 36.8903 86.2756 37.2568 85.5085C37.6275 84.7372 38.1432 84.1364 38.8037 83.706C39.4684 83.2713 40.244 83.054 41.1304 83.054C41.6417 83.054 42.1467 83.1392 42.6453 83.3097C43.1439 83.4801 43.5977 83.7571 44.0068 84.1406C44.4159 84.5199 44.7419 85.0227 44.9848 85.6491C45.2277 86.2756 45.3491 87.0469 45.3491 87.9631V88.6023H37.7809V87.2983H43.815C43.815 86.7443 43.7042 86.25 43.4826 85.8153C43.2653 85.3807 42.9542 85.0376 42.5494 84.7862C42.1488 84.5348 41.6758 84.4091 41.1304 84.4091C40.5295 84.4091 40.0096 84.5582 39.5707 84.8565C39.1361 85.1506 38.8015 85.5341 38.5672 86.0071C38.3328 86.4801 38.2156 86.9872 38.2156 87.5284V88.3977C38.2156 89.1392 38.3434 89.7678 38.5991 90.2834C38.8591 90.7947 39.2191 91.1847 39.6794 91.4531C40.1396 91.7173 40.6744 91.8494 41.2838 91.8494C41.6801 91.8494 42.038 91.794 42.3576 91.6832C42.6815 91.5682 42.9606 91.3977 43.195 91.1719C43.4294 90.9418 43.6105 90.6562 43.7383 90.3153L45.1957 90.7244C45.0423 91.2188 44.7845 91.6534 44.4223 92.0284C44.0601 92.3991 43.6126 92.6889 43.0799 92.8977C42.5473 93.1023 41.9486 93.2045 41.2838 93.2045ZM48.7433 93.1023C48.428 93.1023 48.1574 92.9893 47.9315 92.7635C47.7057 92.5376 47.5927 92.267 47.5927 91.9517C47.5927 91.6364 47.7057 91.3658 47.9315 91.1399C48.1574 90.9141 48.428 90.8011 48.7433 90.8011C49.0586 90.8011 49.3292 90.9141 49.5551 91.1399C49.7809 91.3658 49.8939 91.6364 49.8939 91.9517C49.8939 92.1605 49.8406 92.3523 49.7341 92.527C49.6318 92.7017 49.4933 92.8423 49.3186 92.9489C49.1481 93.0511 48.9564 93.1023 48.7433 93.1023ZM52.6009 83.1818H54.1094V93.7159C54.1094 94.321 54.005 94.8452 53.7962 95.2884C53.5917 95.7315 53.2806 96.0746 52.863 96.3175C52.4496 96.5604 51.9276 96.6818 51.2969 96.6818C51.2458 96.6818 51.1946 96.6818 51.1435 96.6818C51.0924 96.6818 51.0412 96.6818 50.9901 96.6818V95.2756C51.0412 95.2756 51.0881 95.2756 51.1307 95.2756C51.1733 95.2756 51.2202 95.2756 51.2714 95.2756C51.7316 95.2756 52.0682 95.1392 52.2813 94.8665C52.4944 94.598 52.6009 94.2145 52.6009 93.7159V83.1818ZM53.3424 81.5455C53.0483 81.5455 52.7948 81.4453 52.5817 81.245C52.3729 81.0447 52.2685 80.804 52.2685 80.5227C52.2685 80.2415 52.3729 80.0007 52.5817 79.8004C52.7948 79.6001 53.0483 79.5 53.3424 79.5C53.6364 79.5 53.8878 79.6001 54.0966 79.8004C54.3097 80.0007 54.4162 80.2415 54.4162 80.5227C54.4162 80.804 54.3097 81.0447 54.0966 81.245C53.8878 81.4453 53.6364 81.5455 53.3424 81.5455ZM63.8269 85.3807L62.4718 85.7642C62.3866 85.5384 62.2609 85.3189 62.0947 85.1058C61.9328 84.8885 61.7112 84.7095 61.4299 84.5689C61.1487 84.4283 60.7886 84.358 60.3497 84.358C59.7488 84.358 59.2481 84.4964 58.8475 84.7734C58.4512 85.0462 58.2531 85.3935 58.2531 85.8153C58.2531 86.1903 58.3894 86.4865 58.6622 86.7038C58.9349 86.9212 59.361 87.1023 59.9406 87.2472L61.3979 87.6051C62.2758 87.8182 62.9299 88.1442 63.3603 88.5831C63.7907 89.0178 64.0059 89.5781 64.0059 90.2642C64.0059 90.8267 63.844 91.3295 63.5201 91.7727C63.2005 92.2159 62.7531 92.5653 62.1778 92.821C61.6025 93.0767 60.9335 93.2045 60.1707 93.2045C59.1693 93.2045 58.3404 92.9872 57.6842 92.5526C57.0279 92.1179 56.6124 91.483 56.4377 90.6477L57.8695 90.2898C58.0059 90.8182 58.2637 91.2145 58.643 91.4787C59.0265 91.7429 59.5272 91.875 60.1451 91.875C60.8482 91.875 61.4065 91.7259 61.8198 91.4276C62.2374 91.125 62.4462 90.7628 62.4462 90.3409C62.4462 90 62.3269 89.7145 62.0883 89.4844C61.8497 89.25 61.4832 89.0753 60.9889 88.9602L59.3525 88.5767C58.4533 88.3636 57.7928 88.0334 57.371 87.5859C56.9533 87.1342 56.7445 86.5696 56.7445 85.892C56.7445 85.3381 56.9001 84.848 57.2112 84.4219C57.5265 83.9957 57.9548 83.6612 58.496 83.4183C59.0414 83.1754 59.6593 83.054 60.3497 83.054C61.3212 83.054 62.084 83.267 62.638 83.6932C63.1962 84.1193 63.5926 84.6818 63.8269 85.3807Z" fill="#D1D5DB"/>
</g>
<defs>
<clipPath id="clip0_327_1893">
<rect width="65" height="100" fill="white" transform="translate(0.313965)"/>
</clipPath>
<clipPath id="clip1_327_1893">
<rect width="56.32" height="64" fill="white" transform="translate(4.65381)"/>
</clipPath>
</defs>
</svg>
