<svg width="71" height="100" viewBox="0 0 71 100" fill="none" xmlns="http://www.w3.org/2000/svg">
<g clip-path="url(#clip0_327_1875)">
<g clip-path="url(#clip1_327_1875)">
<path d="M35.6572 38.7725C39.3295 38.7725 42.3065 35.7404 42.3065 32C42.3065 28.2597 39.3295 25.2275 35.6572 25.2275C31.9848 25.2275 29.0078 28.2597 29.0078 32C29.0078 35.7404 31.9848 38.7725 35.6572 38.7725Z" fill="#087EA4"/>
<path d="M35.6569 47.238C54.0186 47.238 68.9037 40.4157 68.9037 31.9999C68.9037 23.5842 54.0186 16.7618 35.6569 16.7618C17.2952 16.7618 2.41016 23.5842 2.41016 31.9999C2.41016 40.4157 17.2952 47.238 35.6569 47.238Z" stroke="#087EA4" stroke-width="3"/>
<path d="M22.7003 39.619C31.8812 55.8152 45.1246 65.5336 52.2803 61.3257C59.4361 57.1178 57.7944 40.5771 48.6136 24.3809C39.4328 8.18475 26.1893 -1.53366 19.0336 2.67422C11.8778 6.88211 13.5195 23.4228 22.7003 39.619Z" stroke="#087EA4" stroke-width="3"/>
<path d="M22.7002 24.3808C13.5193 40.577 11.8777 57.1177 19.0334 61.3256C26.1892 65.5335 39.4326 55.8151 48.6134 39.6189C57.7943 23.4228 59.4359 6.88205 52.2802 2.67416C45.1244 -1.53372 31.881 8.18469 22.7002 24.3808Z" stroke="#087EA4" stroke-width="3"/>
</g>
<path d="M12.7425 93V79.9091H17.1657C18.1885 79.9091 19.028 80.0838 19.6842 80.4332C20.3405 80.7784 20.8263 81.2536 21.1416 81.8587C21.4569 82.4638 21.6146 83.152 21.6146 83.9233C21.6146 84.6946 21.4569 85.3786 21.1416 85.9751C20.8263 86.5717 20.3426 87.0405 19.6906 87.3814C19.0386 87.718 18.2055 87.8864 17.1913 87.8864H13.6118V86.4545H17.1402C17.839 86.4545 18.4015 86.3523 18.8277 86.1477C19.2581 85.9432 19.5692 85.6534 19.7609 85.2784C19.9569 84.8991 20.055 84.4474 20.055 83.9233C20.055 83.3991 19.9569 82.9411 19.7609 82.549C19.5649 82.157 19.2517 81.8544 18.8213 81.6413C18.3909 81.424 17.822 81.3153 17.1146 81.3153H14.3277V93H12.7425ZM18.9044 87.1193L22.126 93H20.2851L17.1146 87.1193H18.9044ZM28.0626 93.2045C27.1166 93.2045 26.3005 92.9957 25.6144 92.5781C24.9326 92.1562 24.4063 91.5682 24.0356 90.8139C23.6691 90.0554 23.4859 89.1733 23.4859 88.1676C23.4859 87.1619 23.6691 86.2756 24.0356 85.5085C24.4063 84.7372 24.922 84.1364 25.5825 83.706C26.2472 83.2713 27.0228 83.054 27.9092 83.054C28.4205 83.054 28.9255 83.1392 29.4241 83.3097C29.9227 83.4801 30.3765 83.7571 30.7856 84.1406C31.1947 84.5199 31.5207 85.0227 31.7636 85.6491C32.0065 86.2756 32.1279 87.0469 32.1279 87.9631V88.6023H24.5597V87.2983H30.5938C30.5938 86.7443 30.483 86.25 30.2615 85.8153C30.0441 85.3807 29.733 85.0376 29.3282 84.7862C28.9276 84.5348 28.4546 84.4091 27.9092 84.4091C27.3083 84.4091 26.7884 84.5582 26.3495 84.8565C25.9149 85.1506 25.5803 85.5341 25.346 86.0071C25.1116 86.4801 24.9944 86.9872 24.9944 87.5284V88.3977C24.9944 89.1392 25.1222 89.7678 25.3779 90.2834C25.6379 90.7947 25.998 91.1847 26.4582 91.4531C26.9184 91.7173 27.4532 91.8494 28.0626 91.8494C28.4589 91.8494 28.8169 91.794 29.1365 91.6832C29.4603 91.5682 29.7394 91.3977 29.9738 91.1719C30.2082 90.9418 30.3893 90.6562 30.5171 90.3153L31.9745 90.7244C31.8211 91.2188 31.5633 91.6534 31.2011 92.0284C30.8389 92.3991 30.3914 92.6889 29.8588 92.8977C29.3261 93.1023 28.7274 93.2045 28.0626 93.2045ZM37.3119 93.2301C36.6897 93.2301 36.1251 93.1129 35.618 92.8786C35.1109 92.6399 34.7082 92.2969 34.4099 91.8494C34.1116 91.3977 33.9624 90.8523 33.9624 90.2131C33.9624 89.6506 34.0732 89.1946 34.2948 88.8452C34.5164 88.4915 34.8126 88.2145 35.1833 88.0142C35.5541 87.8139 35.9632 87.6648 36.4106 87.5668C36.8623 87.4645 37.3161 87.3835 37.7721 87.3239C38.3687 87.2472 38.8524 87.1896 39.2231 87.1513C39.5981 87.1087 39.8708 87.0384 40.0413 86.9403C40.216 86.8423 40.3034 86.6719 40.3034 86.429V86.3778C40.3034 85.7472 40.1308 85.2571 39.7856 84.9077C39.4447 84.5582 38.9269 84.3835 38.2323 84.3835C37.5122 84.3835 36.9475 84.5412 36.5384 84.8565C36.1294 85.1719 35.8417 85.5085 35.6755 85.8665L34.2437 85.3551C34.4994 84.7585 34.8403 84.294 35.2664 83.9616C35.6968 83.625 36.1656 83.3906 36.6727 83.2585C37.184 83.1222 37.6869 83.054 38.1812 83.054C38.4965 83.054 38.8588 83.0923 39.2678 83.169C39.6812 83.2415 40.0796 83.3928 40.4632 83.6229C40.8509 83.853 41.1727 84.2003 41.4284 84.6648C41.684 85.1293 41.8119 85.7514 41.8119 86.5312V93H40.3034V91.6705H40.2267C40.1244 91.8835 39.9539 92.1115 39.7153 92.3544C39.4767 92.5973 39.1592 92.804 38.7629 92.9744C38.3666 93.1449 37.8829 93.2301 37.3119 93.2301ZM37.542 91.875C38.1386 91.875 38.6414 91.7578 39.0505 91.5234C39.4639 91.2891 39.7749 90.9865 39.9838 90.6158C40.1968 90.245 40.3034 89.8551 40.3034 89.446V88.0653C40.2394 88.142 40.0988 88.2124 39.8815 88.2763C39.6684 88.3359 39.4213 88.3892 39.14 88.4361C38.863 88.4787 38.5924 88.517 38.3282 88.5511C38.0683 88.581 37.8573 88.6065 37.6954 88.6278C37.3034 88.679 36.9369 88.7621 36.596 88.8771C36.2593 88.9879 35.9866 89.1562 35.7778 89.3821C35.5732 89.6037 35.471 89.9062 35.471 90.2898C35.471 90.8139 35.6649 91.2102 36.0526 91.4787C36.4447 91.7429 36.9411 91.875 37.542 91.875ZM48.5539 93.2045C47.6334 93.2045 46.8408 92.9872 46.176 92.5526C45.5113 92.1179 44.9999 91.5192 44.642 90.7564C44.284 89.9936 44.105 89.1222 44.105 88.142C44.105 87.1449 44.2883 86.2649 44.6547 85.5021C45.0255 84.7351 45.5411 84.1364 46.2016 83.706C46.8664 83.2713 47.642 83.054 48.5283 83.054C49.2187 83.054 49.8408 83.1818 50.3948 83.4375C50.9488 83.6932 51.4026 84.0511 51.7563 84.5114C52.11 84.9716 52.3295 85.5085 52.4147 86.1222H50.9062C50.7911 85.6747 50.5354 85.2784 50.1391 84.9332C49.7471 84.5838 49.2187 84.4091 48.5539 84.4091C47.9658 84.4091 47.4502 84.5625 47.007 84.8693C46.5681 85.1719 46.2251 85.6001 45.9779 86.1541C45.735 86.7038 45.6135 87.3494 45.6135 88.0909C45.6135 88.8494 45.7329 89.5099 45.9715 90.0724C46.2144 90.6349 46.5553 91.0717 46.9942 91.3828C47.4374 91.6939 47.9573 91.8494 48.5539 91.8494C48.9459 91.8494 49.3018 91.7812 49.6214 91.6449C49.941 91.5085 50.2116 91.3125 50.4332 91.0568C50.6547 90.8011 50.8124 90.4943 50.9062 90.1364H52.4147C52.3295 90.7159 52.1185 91.2379 51.7819 91.7024C51.4495 92.1626 51.0084 92.5291 50.4587 92.8018C49.9133 93.0703 49.2783 93.2045 48.5539 93.2045ZM58.8898 83.1818V84.4602H53.8018V83.1818H58.8898ZM55.2847 80.8295H56.7932V90.1875C56.7932 90.6136 56.855 90.9332 56.9786 91.1463C57.1064 91.3551 57.2684 91.4957 57.4644 91.5682C57.6647 91.6364 57.8756 91.6705 58.0972 91.6705C58.2634 91.6705 58.3998 91.6619 58.5063 91.6449C58.6128 91.6236 58.6981 91.6065 58.762 91.5938L59.0688 92.9489C58.9665 92.9872 58.8238 93.0256 58.6405 93.0639C58.4573 93.1065 58.2251 93.1278 57.9438 93.1278C57.5177 93.1278 57.1001 93.0362 56.691 92.853C56.2861 92.6697 55.9495 92.3906 55.681 92.0156C55.4168 91.6406 55.2847 91.1676 55.2847 90.5966V80.8295Z" fill="#D1D5DB"/>
</g>
<defs>
<clipPath id="clip0_327_1875">
<rect width="69.8182" height="100" fill="white" transform="translate(0.748047)"/>
</clipPath>
<clipPath id="clip1_327_1875">
<rect width="69.8182" height="64" fill="white" transform="translate(0.748047)"/>
</clipPath>
</defs>
</svg>
