<svg width="106" height="100" viewBox="0 0 106 100" fill="none" xmlns="http://www.w3.org/2000/svg">
<g clip-path="url(#clip0_327_1922)">
<g clip-path="url(#clip1_327_1922)">
<mask id="mask0_327_1922" style="mask-type:luminance" maskUnits="userSpaceOnUse" x="0" y="0" width="106" height="63">
<path d="M0.974121 0H105.701V62.8364H0.974121V0Z" fill="white"/>
</mask>
<g mask="url(#mask0_327_1922)">
<path fill-rule="evenodd" clip-rule="evenodd" d="M53.3378 0C39.3741 0 30.6468 6.98182 27.1559 20.9455C32.3923 13.9636 38.5014 11.3455 45.4832 13.0909C49.4667 14.0858 52.3138 16.9775 55.4653 20.1755C60.5988 25.3867 66.5412 31.4182 79.5196 31.4182C93.4832 31.4182 102.21 24.4364 105.701 10.4727C100.465 17.4545 94.3559 20.0727 87.3741 18.3273C83.3906 17.3324 80.5436 14.4407 77.3921 11.2427C72.2585 6.03151 66.3162 0 53.3378 0ZM27.1559 31.4182C13.1923 31.4182 4.46503 38.4 0.974121 52.3636C6.21048 45.3818 12.3196 42.7636 19.3014 44.5091C23.2849 45.5059 26.1319 48.3956 29.2835 51.5937C34.417 56.8048 40.3593 62.8364 53.3378 62.8364C67.3014 62.8364 76.0287 55.8545 79.5196 41.8909C74.2832 48.8727 68.1741 51.4909 61.1923 49.7455C57.2088 48.7505 54.3618 45.8589 51.2102 42.6608C46.0767 37.4497 40.1344 31.4182 27.1559 31.4182Z" fill="#38BDF8"/>
</g>
</g>
<path d="M4.70721 81.3153V79.9091H14.5254V81.3153H10.4089V93H8.82369V81.3153H4.70721ZM18.3207 93.2301C17.6985 93.2301 17.1339 93.1129 16.6268 92.8786C16.1197 92.6399 15.717 92.2969 15.4187 91.8494C15.1204 91.3977 14.9712 90.8523 14.9712 90.2131C14.9712 89.6506 15.082 89.1946 15.3036 88.8452C15.5252 88.4915 15.8214 88.2145 16.1921 88.0142C16.5629 87.8139 16.9719 87.6648 17.4194 87.5668C17.8711 87.4645 18.3249 87.3835 18.7809 87.3239C19.3775 87.2472 19.8612 87.1896 20.2319 87.1513C20.6069 87.1087 20.8796 87.0384 21.0501 86.9403C21.2248 86.8423 21.3121 86.6719 21.3121 86.429V86.3778C21.3121 85.7472 21.1396 85.2571 20.7944 84.9077C20.4535 84.5582 19.9357 84.3835 19.2411 84.3835C18.521 84.3835 17.9563 84.5412 17.5472 84.8565C17.1381 85.1719 16.8505 85.5085 16.6843 85.8665L15.2525 85.3551C15.5082 84.7585 15.8491 84.294 16.2752 83.9616C16.7056 83.625 17.1744 83.3906 17.6815 83.2585C18.1928 83.1222 18.6957 83.054 19.19 83.054C19.5053 83.054 19.8675 83.0923 20.2766 83.169C20.69 83.2415 21.0884 83.3928 21.4719 83.6229C21.8597 83.853 22.1815 84.2003 22.4371 84.6648C22.6928 85.1293 22.8207 85.7514 22.8207 86.5312V93H21.3121V91.6705H21.2354C21.1332 91.8835 20.9627 92.1115 20.7241 92.3544C20.4854 92.5973 20.168 92.804 19.7717 92.9744C19.3754 93.1449 18.8917 93.2301 18.3207 93.2301ZM18.5508 91.875C19.1474 91.875 19.6502 91.7578 20.0593 91.5234C20.4727 91.2891 20.7837 90.9865 20.9925 90.6158C21.2056 90.245 21.3121 89.8551 21.3121 89.446V88.0653C21.2482 88.142 21.1076 88.2124 20.8903 88.2763C20.6772 88.3359 20.43 88.3892 20.1488 88.4361C19.8718 88.4787 19.6012 88.517 19.337 88.5511C19.0771 88.581 18.8661 88.6065 18.7042 88.6278C18.3121 88.679 17.9457 88.7621 17.6048 88.8771C17.2681 88.9879 16.9954 89.1562 16.7866 89.3821C16.582 89.6037 16.4798 89.9062 16.4798 90.2898C16.4798 90.8139 16.6737 91.2102 17.0614 91.4787C17.4535 91.7429 17.9499 91.875 18.5508 91.875ZM25.574 93V83.1818H27.0826V93H25.574ZM26.3411 81.5455C26.0471 81.5455 25.7935 81.4453 25.5804 81.245C25.3716 81.0447 25.2672 80.804 25.2672 80.5227C25.2672 80.2415 25.3716 80.0007 25.5804 79.8004C25.7935 79.6001 26.0471 79.5 26.3411 79.5C26.6351 79.5 26.8865 79.6001 27.0953 79.8004C27.3084 80.0007 27.415 80.2415 27.415 80.5227C27.415 80.804 27.3084 81.0447 27.0953 81.245C26.8865 81.4453 26.6351 81.5455 26.3411 81.5455ZM31.354 79.9091V93H29.8455V79.9091H31.354ZM36.3414 93L33.35 83.1818H34.9352L37.0574 90.6989H37.1596L39.2562 83.1818H40.867L42.938 90.6733H43.0403L45.1625 83.1818H46.7477L43.7562 93H42.2733L40.1255 85.4574H39.9721L37.8244 93H36.3414ZM48.742 93V83.1818H50.2505V93H48.742ZM49.5091 81.5455C49.215 81.5455 48.9615 81.4453 48.7484 81.245C48.5396 81.0447 48.4352 80.804 48.4352 80.5227C48.4352 80.2415 48.5396 80.0007 48.7484 79.8004C48.9615 79.6001 49.215 79.5 49.5091 79.5C49.8031 79.5 50.0545 79.6001 50.2633 79.8004C50.4764 80.0007 50.5829 80.2415 50.5829 80.5227C50.5829 80.804 50.4764 81.0447 50.2633 81.245C50.0545 81.4453 49.8031 81.5455 49.5091 81.5455ZM54.522 87.0938V93H53.0135V83.1818H54.4709V84.7159H54.5987C54.8288 84.2173 55.1783 83.8168 55.647 83.5142C56.1158 83.2074 56.7209 83.054 57.4624 83.054C58.1271 83.054 58.7088 83.1903 59.2074 83.4631C59.706 83.7315 60.0938 84.1406 60.3707 84.6903C60.6477 85.2358 60.7862 85.9261 60.7862 86.7614V93H59.2777V86.8636C59.2777 86.0923 59.0774 85.4915 58.6768 85.0611C58.2763 84.6264 57.7266 84.4091 57.0277 84.4091C56.5462 84.4091 56.1158 84.5135 55.7365 84.7223C55.3615 84.9311 55.0653 85.2358 54.848 85.6364C54.6307 86.0369 54.522 86.5227 54.522 87.0938ZM67.2502 93.2045C66.432 93.2045 65.7097 92.9979 65.0833 92.5845C64.4569 92.1669 63.9668 91.5788 63.6131 90.8203C63.2594 90.0575 63.0826 89.1562 63.0826 88.1165C63.0826 87.0852 63.2594 86.1903 63.6131 85.4318C63.9668 84.6733 64.459 84.0874 65.0897 83.674C65.7203 83.2607 66.449 83.054 67.2757 83.054C67.915 83.054 68.4199 83.1605 68.7907 83.3736C69.1657 83.5824 69.4512 83.821 69.6472 84.0895C69.8475 84.3537 70.003 84.571 70.1138 84.7415H70.2417V79.9091H71.7502V93H70.2928V91.4915H70.1138C70.003 91.6705 69.8453 91.8963 69.6408 92.169C69.4363 92.4375 69.1444 92.6783 68.7651 92.8913C68.3858 93.1001 67.8809 93.2045 67.2502 93.2045ZM67.4547 91.8494C68.0598 91.8494 68.5712 91.6918 68.9888 91.3764C69.4064 91.0568 69.7239 90.6158 69.9412 90.0533C70.1586 89.4865 70.2672 88.8324 70.2672 88.0909C70.2672 87.358 70.1607 86.7166 69.9476 86.1669C69.7346 85.6129 69.4192 85.1825 69.0016 84.8757C68.584 84.5646 68.0684 84.4091 67.4547 84.4091C66.8155 84.4091 66.2828 84.5732 65.8567 84.9013C65.4348 85.2251 65.1174 85.6662 64.9043 86.2244C64.6955 86.7784 64.5911 87.4006 64.5911 88.0909C64.5911 88.7898 64.6976 89.4247 64.9107 89.9957C65.128 90.5625 65.4476 91.0142 65.8695 91.3509C66.2956 91.6832 66.824 91.8494 67.4547 91.8494ZM78.7111 93.2045C77.7907 93.2045 76.998 92.9872 76.3333 92.5526C75.6685 92.1179 75.1571 91.5192 74.7992 90.7564C74.4412 89.9936 74.2623 89.1222 74.2623 88.142C74.2623 87.1449 74.4455 86.2649 74.812 85.5021C75.1827 84.7351 75.6983 84.1364 76.3588 83.706C77.0236 83.2713 77.7992 83.054 78.6855 83.054C79.3759 83.054 79.998 83.1818 80.552 83.4375C81.106 83.6932 81.5598 84.0511 81.9135 84.5114C82.2672 84.9716 82.4867 85.5085 82.5719 86.1222H81.0634C80.9483 85.6747 80.6926 85.2784 80.2963 84.9332C79.9043 84.5838 79.3759 84.4091 78.7111 84.4091C78.123 84.4091 77.6074 84.5625 77.1642 84.8693C76.7253 85.1719 76.3823 85.6001 76.1351 86.1541C75.8922 86.7038 75.7708 87.3494 75.7708 88.0909C75.7708 88.8494 75.8901 89.5099 76.1287 90.0724C76.3716 90.6349 76.7125 91.0717 77.1515 91.3828C77.5946 91.6939 78.1145 91.8494 78.7111 91.8494C79.1032 91.8494 79.459 91.7812 79.7786 91.6449C80.0982 91.5085 80.3688 91.3125 80.5904 91.0568C80.812 90.8011 80.9696 90.4943 81.0634 90.1364H82.5719C82.4867 90.7159 82.2757 91.2379 81.9391 91.7024C81.6067 92.1626 81.1657 92.5291 80.6159 92.8018C80.0705 93.0703 79.4355 93.2045 78.7111 93.2045ZM91.7317 85.3807L90.3766 85.7642C90.2914 85.5384 90.1657 85.3189 89.9995 85.1058C89.8375 84.8885 89.6159 84.7095 89.3347 84.5689C89.0534 84.4283 88.6934 84.358 88.2544 84.358C87.6536 84.358 87.1529 84.4964 86.7523 84.7734C86.356 85.0462 86.1578 85.3935 86.1578 85.8153C86.1578 86.1903 86.2942 86.4865 86.5669 86.7038C86.8397 86.9212 87.2658 87.1023 87.8453 87.2472L89.3027 87.6051C90.1806 87.8182 90.8347 88.1442 91.2651 88.5831C91.6955 89.0178 91.9107 89.5781 91.9107 90.2642C91.9107 90.8267 91.7488 91.3295 91.4249 91.7727C91.1053 92.2159 90.6578 92.5653 90.0826 92.821C89.5073 93.0767 88.8382 93.2045 88.0755 93.2045C87.074 93.2045 86.2452 92.9872 85.589 92.5526C84.9327 92.1179 84.5172 91.483 84.3425 90.6477L85.7743 90.2898C85.9107 90.8182 86.1685 91.2145 86.5478 91.4787C86.9313 91.7429 87.432 91.875 88.0499 91.875C88.753 91.875 89.3113 91.7259 89.7246 91.4276C90.1422 91.125 90.351 90.7628 90.351 90.3409C90.351 90 90.2317 89.7145 89.9931 89.4844C89.7544 89.25 89.388 89.0753 88.8936 88.9602L87.2573 88.5767C86.3581 88.3636 85.6976 88.0334 85.2757 87.5859C84.8581 87.1342 84.6493 86.5696 84.6493 85.892C84.6493 85.3381 84.8049 84.848 85.1159 84.4219C85.4313 83.9957 85.8596 83.6612 86.4007 83.4183C86.9462 83.1754 87.5641 83.054 88.2544 83.054C89.226 83.054 89.9888 83.267 90.5428 83.6932C91.101 84.1193 91.4973 84.6818 91.7317 85.3807ZM101.136 85.3807L99.7809 85.7642C99.6957 85.5384 99.57 85.3189 99.4038 85.1058C99.2418 84.8885 99.0202 84.7095 98.739 84.5689C98.4577 84.4283 98.0977 84.358 97.6587 84.358C97.0579 84.358 96.5572 84.4964 96.1566 84.7734C95.7603 85.0462 95.5621 85.3935 95.5621 85.8153C95.5621 86.1903 95.6985 86.4865 95.9712 86.7038C96.244 86.9212 96.6701 87.1023 97.2496 87.2472L98.707 87.6051C99.5849 87.8182 100.239 88.1442 100.669 88.5831C101.1 89.0178 101.315 89.5781 101.315 90.2642C101.315 90.8267 101.153 91.3295 100.829 91.7727C100.51 92.2159 100.062 92.5653 99.4869 92.821C98.9116 93.0767 98.2425 93.2045 97.4798 93.2045C96.4783 93.2045 95.6495 92.9872 94.9933 92.5526C94.337 92.1179 93.9215 91.483 93.7468 90.6477L95.1786 90.2898C95.315 90.8182 95.5728 91.2145 95.9521 91.4787C96.3356 91.7429 96.8363 91.875 97.4542 91.875C98.1573 91.875 98.7156 91.7259 99.1289 91.4276C99.5465 91.125 99.7553 90.7628 99.7553 90.3409C99.7553 90 99.636 89.7145 99.3974 89.4844C99.1587 89.25 98.7923 89.0753 98.2979 88.9602L96.6616 88.5767C95.7624 88.3636 95.1019 88.0334 94.68 87.5859C94.2624 87.1342 94.0536 86.5696 94.0536 85.892C94.0536 85.3381 94.2092 84.848 94.5202 84.4219C94.8356 83.9957 95.2638 83.6612 95.805 83.4183C96.3505 83.1754 96.9684 83.054 97.6587 83.054C98.6303 83.054 99.3931 83.267 99.9471 83.6932C100.505 84.1193 100.902 84.6818 101.136 85.3807Z" fill="#D1D5DB"/>
</g>
<defs>
<clipPath id="clip0_327_1922">
<rect width="104.727" height="100" fill="white" transform="translate(0.974121)"/>
</clipPath>
<clipPath id="clip1_327_1922">
<rect width="104.727" height="64" fill="white" transform="translate(0.974121)"/>
</clipPath>
</defs>
</svg>
